<svg width="30" height="30" viewBox="0 0 30 30" fill="none" xmlns="http://www.w3.org/2000/svg">
<path d="M2.28846 0.295602L14.9878 12.9881L27.5522 0.423033C28.4084 -0.339678 29.2946 0.1157 29.6487 0.497992C29.8759 0.774844 29.993 1.12571 29.9778 1.48352C29.9626 1.84134 29.8161 2.18099 29.5663 2.43756L17 15.0007L29.5663 27.5602C30.1246 28.0287 30.1246 28.9469 29.6768 29.4604C29.2272 29.972 28.4028 30.2681 27.6252 29.6609L14.9878 17.0134L2.3353 29.6665C1.78071 30.1631 0.866389 30.0619 0.41485 29.5691C-0.0385627 29.0744 -0.210935 28.2198 0.36801 27.6164L12.9755 15.0007L0.42047 2.43756C-0.0385631 1.93159 -0.19782 1.00584 0.42047 0.423033C1.03876 -0.159776 1.96058 -0.0791943 2.28846 0.295602Z" fill="#143D18"/>
</svg>
