<svg width="30" height="23" viewBox="0 0 30 23" fill="none" xmlns="http://www.w3.org/2000/svg">
<path d="M9.28057 18.162L3.02494 11.9253C2.86136 11.7602 2.66654 11.6292 2.45177 11.5397C2.237 11.4503 2.00656 11.4042 1.77381 11.4042C1.54106 11.4042 1.31062 11.4503 1.09585 11.5397C0.881085 11.6292 0.686265 11.7602 0.522684 11.9253C0.357107 12.0884 0.225646 12.2826 0.135923 12.4968C0.0462006 12.7109 0 12.9406 0 13.1727C0 13.4047 0.0462006 13.6344 0.135923 13.8486C0.225646 14.0627 0.357107 14.2569 0.522684 14.42L8.01157 21.8862C8.70862 22.5811 9.83464 22.5811 10.5317 21.8862L29.4773 3.01577C29.6429 2.85269 29.7744 2.65846 29.8641 2.44434C29.9538 2.23023 30 2.00049 30 1.76844C30 1.53639 29.9538 1.30665 29.8641 1.09253C29.7744 0.878416 29.6429 0.684186 29.4773 0.521101C29.3137 0.356025 29.1189 0.224962 28.9041 0.135511C28.6894 0.0460602 28.4589 0 28.2262 0C27.9934 0 27.763 0.0460602 27.5482 0.135511C27.3335 0.224962 27.1386 0.356025 26.9751 0.521101L9.28057 18.162Z" fill="#ABB1C5"/>
</svg>
