<svg width="24" height="24" viewBox="0 0 24 24" fill="none" xmlns="http://www.w3.org/2000/svg">
<path d="M16.5056 0.745218C16.9829 0.268055 17.6301 0 18.305 0C18.9799 0 19.6272 0.268055 20.1045 0.745218L23.2542 3.89498C23.4906 4.13134 23.6782 4.41198 23.8062 4.72085C23.9341 5.02972 24 5.36078 24 5.69512C24 6.02945 23.9341 6.36051 23.8062 6.66938C23.6782 6.97826 23.4906 7.25889 23.2542 7.49525L8.11917 22.6306L0 24L1.37059 15.8806L16.5056 0.745218ZM16.2142 4.63565L19.3638 7.78541L21.4547 5.69448L18.305 2.54599L16.2142 4.63565ZM17.5631 9.58618L14.4147 6.43642L3.74525 17.1062L3.10514 20.8948L6.89366 20.2559L17.5644 9.58491L17.5631 9.58618Z" fill="#28B737"/>
</svg>
