<svg width="20" height="22" viewBox="0 0 20 22" fill="none" xmlns="http://www.w3.org/2000/svg">
<path d="M9.50808 0C9.81101 0.000345531 10.1024 0.11963 10.3227 0.333481C10.5429 0.547333 10.6755 0.839609 10.6932 1.15059C10.711 1.46158 10.6126 1.7678 10.4182 2.00668C10.2237 2.24557 9.94795 2.3991 9.64714 2.43589L9.50808 2.44444H3.56553C3.27443 2.44448 2.99346 2.55439 2.77592 2.75332C2.55838 2.95225 2.4194 3.22636 2.38534 3.52367L2.37702 3.66667V18.3333C2.37706 18.6327 2.48393 18.9216 2.67738 19.1453C2.87082 19.3691 3.13737 19.512 3.42648 19.547L3.56553 19.5556H8.91383C9.21676 19.5559 9.50812 19.6752 9.7284 19.889C9.94867 20.1029 10.0812 20.3952 10.099 20.7061C10.1167 21.0171 10.0183 21.3234 9.82391 21.5622C9.62948 21.8011 9.35369 21.9547 9.05288 21.9914L8.91383 22H3.56553C2.65607 22.0001 1.78097 21.6427 1.11927 21.0011C0.457568 20.3595 0.0592977 19.4821 0.00594269 18.5484L5.53899e-09 18.3333V3.66667C-5.06564e-05 2.73141 0.347431 1.83148 0.97135 1.15101C1.59527 0.470547 2.44846 0.0609797 3.35635 0.00611125L3.56553 0H9.50808ZM16.2909 6.67822L19.652 10.1359C19.8748 10.3651 20 10.6759 20 11C20 11.3241 19.8748 11.6349 19.652 11.8641L16.2909 15.3218C16.0679 15.551 15.7655 15.6796 15.4502 15.6795C15.1349 15.6794 14.8326 15.5505 14.6098 15.3212C14.3869 15.0918 14.2618 14.7808 14.2619 14.4566C14.262 14.1324 14.3873 13.8215 14.6104 13.5923L15.9427 12.2222H9.50808C9.19287 12.2222 8.89057 12.0935 8.66768 11.8642C8.44479 11.635 8.31957 11.3242 8.31957 11C8.31957 10.6758 8.44479 10.365 8.66768 10.1358C8.89057 9.90655 9.19287 9.77778 9.50808 9.77778H15.9427L14.6104 8.40767C14.3873 8.17849 14.262 7.8676 14.2619 7.54338C14.2618 7.21916 14.3869 6.90817 14.6098 6.67883C14.8326 6.4495 15.1349 6.32059 15.4502 6.32047C15.7655 6.32036 16.0679 6.44905 16.2909 6.67822Z" fill="white"/>
</svg>
