<svg width="32" height="30" viewBox="0 0 32 30" fill="none" xmlns="http://www.w3.org/2000/svg">
<path d="M15.5165 25.8169C16.9844 25.8169 18.325 25.6578 19.5477 25.3827L16.8214 22.6677C16.3978 22.7001 15.968 22.7264 15.5165 22.7264C7.21339 22.7264 3.99674 16.7832 3.21779 15C3.80269 13.7001 4.59266 12.5018 5.55773 11.4505L3.38847 9.2902C1.00198 11.8662 0.0973448 14.4607 0.0802762 14.5117C-0.0267587 14.829 -0.0267587 15.1725 0.0802762 15.4899C0.112862 15.5918 3.67243 25.8169 15.5165 25.8169ZM15.5165 4.18306C12.666 4.18306 10.3245 4.79499 8.3725 5.69898L2.64832 0L0.454233 2.18502L28.3846 30L30.5787 27.815L25.4286 22.6862C29.4848 19.6714 30.9325 15.5548 30.9542 15.4899C31.0612 15.1725 31.0612 14.829 30.9542 14.5117C30.9201 14.4082 27.3605 4.18306 15.5165 4.18306ZM23.2315 20.4981L19.6936 16.9749C19.9884 16.3722 20.1715 15.7093 20.1715 15C20.1715 12.4642 18.0628 10.3642 15.5165 10.3642C14.8042 10.3642 14.1386 10.5465 13.535 10.8417L10.7295 8.0478C12.2696 7.5215 13.8883 7.25971 15.5165 7.27362C23.8195 7.27362 27.0362 13.2167 27.8151 15C27.3465 16.0693 26.0059 18.619 23.2315 20.4981Z" fill="#28B737"/>
</svg>
