<svg width="22" height="18" viewBox="0 0 22 18" fill="none" xmlns="http://www.w3.org/2000/svg">
<path d="M9.81561 0.263941C9.90083 0.347521 9.96844 0.446776 10.0146 0.556027C10.0607 0.665278 10.0844 0.782382 10.0844 0.900648C10.0844 1.01891 10.0607 1.13602 10.0146 1.24527C9.96844 1.35452 9.90083 1.45378 9.81561 1.53736L3.12989 8.10017L21.0834 8.10016C21.3265 8.10016 21.5596 8.19498 21.7315 8.36375C21.9034 8.53252 22 8.76143 22 9.0001C22 9.23878 21.9034 9.46769 21.7315 9.63646C21.5596 9.80523 21.3265 9.90004 21.0834 9.90004L3.12989 9.90004L9.81561 16.4629C9.98761 16.6317 10.0842 16.8607 10.0842 17.0996C10.0842 17.3384 9.98761 17.5674 9.81561 17.7363C9.64361 17.9051 9.41033 18 9.16709 18C8.92385 18 8.69057 17.9051 8.51857 17.7363L0.268837 9.63681C0.183611 9.55323 0.116001 9.45398 0.069872 9.34473C0.0237429 9.23548 -3.88228e-07 9.11837 -3.93398e-07 9.0001C-3.98567e-07 8.88184 0.0237429 8.76473 0.069872 8.65548C0.116001 8.54623 0.183611 8.44698 0.268837 8.3634L8.51857 0.263941C8.6037 0.180268 8.70479 0.113889 8.81607 0.0685998C8.92735 0.023311 9.04663 1.64086e-06 9.16709 1.63559e-06C9.28755 1.63033e-06 9.40683 0.0233109 9.5181 0.0685998C9.62938 0.113889 9.73048 0.180268 9.81561 0.263941Z" fill="#28B737"/>
</svg>
