<svg width="29" height="29" viewBox="0 0 29 29" fill="none" xmlns="http://www.w3.org/2000/svg">
<path d="M27.735 4.5923L23.8744 0.735783C23.4031 0.264592 22.7724 0 22.1053 0C21.4383 0 20.8076 0.260967 20.3363 0.735783L16.1784 4.88589C15.7072 5.35708 15.4426 5.99138 15.4426 6.65829C15.4426 7.32883 15.7036 7.95588 16.1784 8.4307L19.4265 11.6819C18.6865 13.4057 17.6234 14.9719 16.2944 16.296C14.9641 17.6334 13.4089 18.6882 11.6834 19.4348L8.43541 16.1836C7.96416 15.7124 7.33341 15.4478 6.6664 15.4478C6.33741 15.4466 6.01148 15.5111 5.70772 15.6374C5.40395 15.7637 5.12846 15.9494 4.8974 16.1836L0.735878 20.3337C0.264626 20.8049 0 21.4392 0 22.1061C0 22.7767 0.261001 23.4037 0.735878 23.8785L4.5929 27.735C5.39765 28.5397 6.5069 29 7.64516 29C7.88078 29 8.10916 28.9819 8.34116 28.942C13.1407 28.1519 17.904 25.5965 21.7501 21.7545C25.5926 17.9053 28.1446 13.1426 28.9421 8.34008C29.1705 6.97725 28.7138 5.57455 27.735 4.5923ZM26.372 7.90876C25.6651 12.1821 23.3669 16.4446 19.905 19.906C16.4431 23.3675 12.1837 25.6654 7.90979 26.3722C7.37328 26.4628 6.82228 26.2816 6.43078 25.8938L2.64264 22.1061L6.65915 18.0865L11.0019 22.4359L11.0345 22.4686L11.8176 22.1786C14.1917 21.3058 16.3476 19.9273 18.1359 18.1386C19.9242 16.3499 21.3022 14.1938 22.1742 11.8196L22.4642 11.0367L18.0852 6.66192L22.1017 2.64229L25.8899 6.42995C26.2814 6.8214 26.4626 7.37233 26.372 7.90876Z" fill="#28B737"/>
</svg>
