<svg width="21" height="25" viewBox="0 0 21 25" fill="none" xmlns="http://www.w3.org/2000/svg">
<path d="M13.0613 17.6111H19.4647V24M7.93866 7.38889H1.53532V1M20 8.6705C19.282 6.89719 18.0797 5.36043 16.5299 4.2349C14.9801 3.10938 13.1449 2.44024 11.2329 2.30354C9.32089 2.16684 7.40881 2.56806 5.71399 3.46161C4.01917 4.35516 2.60958 5.70518 1.64546 7.35822M1 16.3295C1.71819 18.1025 2.92045 19.6389 4.47014 20.7642C6.01983 21.8895 7.8548 22.5585 9.76655 22.6952C11.6783 22.8319 13.5901 22.4308 15.2848 21.5375C16.9795 20.6442 18.389 19.2945 19.3533 17.6418" stroke="#143D18" stroke-width="2" stroke-linecap="round" stroke-linejoin="round"/>
</svg>
