<svg width="31" height="22" viewBox="0 0 31 22" fill="none" xmlns="http://www.w3.org/2000/svg">
<path d="M15.5 6C14.309 6.00786 13.1689 6.48449 12.3267 7.32671C11.4845 8.16892 11.0079 9.30895 11 10.5C11 12.963 13.037 15 15.5 15C17.9615 15 20 12.963 20 10.5C20 8.0385 17.9615 6 15.5 6Z" fill="#28B737"/>
<path d="M15.5 0C3.7324 0 0.195793 10.3981 0.163418 10.5034L0 11L0.161876 11.4966C0.195793 11.6019 3.7324 22 15.5 22C27.2676 22 30.8042 11.6019 30.8366 11.4966L31 11L30.8381 10.5034C30.8042 10.3981 27.2676 0 15.5 0ZM15.5 18.8571C7.2505 18.8571 4.0546 12.8134 3.28068 11C4.05769 9.18029 7.25512 3.14286 15.5 3.14286C23.7495 3.14286 26.9454 9.18657 27.7193 11C26.9423 12.8197 23.7449 18.8571 15.5 18.8571Z" fill="#28B737"/>
</svg>
